<svg xmlns="http://www.w3.org/2000/svg" xmlns:xlink="http://www.w3.org/1999/xlink" width="16.36" height="18.31" viewBox="0 0 16.36 18.31"><defs><clipPath id="b"><rect width="16.36" height="18.31"/></clipPath></defs><g id="a" clip-path="url(#b)"><g transform="translate(1220.444 -72.345)"><path d="M0,0H14.472a0,0,0,0,1,0,0V9a2,2,0,0,1-2,2H2A2,2,0,0,1,0,9V0A0,0,0,0,1,0,0Z" transform="translate(-1219.5 78)" fill="#5aadad" stroke="#5aadad" stroke-linecap="round" stroke-linejoin="round" stroke-width="1.3"/><path d="M3,0H4A3,3,0,0,1,7,3V4A0,0,0,0,1,7,4H0A0,0,0,0,1,0,4V3A3,3,0,0,1,3,0Z" transform="translate(-1216 74)" fill="none" stroke="#5aadad" stroke-width="1.3"/></g></g></svg>